<?xml version="1.0" encoding="utf-8"?>
<!-- Generator: Adobe Illustrator 25.4.1, SVG Export Plug-In . SVG Version: 6.00 Build 0)  -->
<svg version="1.1" id="Layer_1" xmlns="http://www.w3.org/2000/svg" xmlns:xlink="http://www.w3.org/1999/xlink" x="0px" y="0px"
	 viewBox="0 0 230.49 108.68" style="enable-background:new 0 0 230.49 108.68;" xml:space="preserve">
<g>
	<path d="M9.81,19.57c0.42,0.01,0.96,0.02,1.63,0.03c0.67,0.01,1.34,0.01,1.99,0.01c0.93,0,1.82,0,2.67-0.01
		c0.85-0.01,1.46-0.01,1.81-0.01c2.08,0,3.64,0.21,4.69,0.62c1.05,0.41,1.58,0.95,1.58,1.6c0,0.33-0.14,0.65-0.43,0.97
		c-0.29,0.32-0.76,0.6-1.43,0.86c-0.66,0.26-1.55,0.47-2.66,0.63v0.03c1.56,0.09,2.79,0.27,3.67,0.53c0.88,0.26,1.5,0.56,1.86,0.91
		c0.36,0.35,0.54,0.72,0.54,1.1c0,0.8-0.63,1.46-1.89,1.97c-1.26,0.51-3.01,0.77-5.24,0.77c-0.44,0-1.09-0.01-1.96-0.02
		c-0.87-0.01-1.92-0.02-3.15-0.02c-0.69,0-1.38,0-2.05,0.01c-0.67,0-1.22,0.02-1.63,0.04V29.3c0.67-0.02,1.18-0.06,1.53-0.11
		c0.35-0.06,0.58-0.17,0.7-0.34c0.12-0.17,0.18-0.42,0.18-0.76v-7.01c0-0.35-0.06-0.61-0.18-0.77c-0.12-0.16-0.35-0.28-0.7-0.34
		c-0.35-0.06-0.86-0.1-1.53-0.11V19.57z M17.18,19.85c-0.91,0-1.51,0.08-1.78,0.24c-0.28,0.16-0.42,0.49-0.42,0.98v7.01
		c0,0.49,0.14,0.81,0.43,0.95c0.29,0.15,0.89,0.22,1.8,0.22c1.94,0,3.35-0.21,4.23-0.64c0.88-0.43,1.32-1.04,1.32-1.83
		c0-0.73-0.41-1.29-1.23-1.68c-0.82-0.4-2.17-0.59-4.06-0.59h-3.06v-0.24h2.56c1.17,0,2.07-0.11,2.7-0.32
		c0.63-0.21,1.07-0.49,1.31-0.85c0.24-0.35,0.36-0.73,0.36-1.14c0-0.7-0.32-1.22-0.97-1.58C19.73,20.03,18.67,19.85,17.18,19.85z"/>
	<path d="M46.78,19.37c1.88,0,3.53,0.2,4.95,0.61c1.42,0.41,2.52,0.99,3.3,1.75c0.78,0.76,1.17,1.68,1.17,2.76
		c0,1.06-0.4,1.98-1.2,2.77c-0.8,0.79-1.92,1.41-3.34,1.85c-1.43,0.44-3.06,0.66-4.9,0.66c-1.88,0-3.53-0.2-4.95-0.61
		c-1.42-0.41-2.52-0.99-3.3-1.75c-0.78-0.76-1.17-1.68-1.17-2.76c0-1.06,0.41-1.98,1.22-2.77c0.81-0.79,1.93-1.41,3.34-1.85
		C43.31,19.59,44.94,19.37,46.78,19.37z M46.66,19.63c-1.29,0-2.41,0.21-3.36,0.64c-0.95,0.42-1.69,1.01-2.21,1.75
		c-0.53,0.74-0.79,1.61-0.79,2.59c0,1,0.29,1.87,0.88,2.61c0.58,0.74,1.38,1.31,2.38,1.71c1,0.4,2.1,0.6,3.31,0.6
		c1.29,0,2.41-0.21,3.36-0.64s1.69-1.01,2.21-1.76c0.52-0.75,0.79-1.61,0.79-2.58c0-1.01-0.29-1.88-0.88-2.62
		c-0.58-0.74-1.37-1.3-2.36-1.7C49,19.83,47.89,19.63,46.66,19.63z"/>
	<path d="M85.73,19.57v0.28c-0.67,0.01-1.18,0.06-1.53,0.14c-0.35,0.08-0.58,0.22-0.7,0.41c-0.12,0.19-0.18,0.46-0.18,0.81v4.26
		c0,0.66-0.09,1.23-0.27,1.73c-0.18,0.49-0.5,0.91-0.95,1.27c-0.5,0.4-1.22,0.71-2.17,0.95c-0.95,0.24-2.04,0.36-3.27,0.36
		c-0.95,0-1.86-0.05-2.72-0.16c-0.86-0.11-1.62-0.31-2.27-0.6c-0.57-0.26-1.03-0.54-1.35-0.83c-0.33-0.29-0.55-0.65-0.67-1.07
		c-0.12-0.42-0.18-0.96-0.18-1.6v-4.44c0-0.35-0.06-0.61-0.18-0.77c-0.12-0.16-0.35-0.28-0.7-0.34c-0.35-0.06-0.86-0.1-1.53-0.11
		v-0.28c0.42,0.01,0.96,0.02,1.63,0.03c0.67,0.01,1.4,0.01,2.17,0.01c0.69,0,1.38,0,2.07-0.01c0.68-0.01,1.25-0.02,1.71-0.03v0.28
		c-0.67,0.01-1.18,0.04-1.53,0.11c-0.35,0.06-0.58,0.17-0.7,0.34c-0.12,0.17-0.18,0.42-0.18,0.77v4.68c0,0.64,0.1,1.23,0.3,1.77
		c0.2,0.54,0.63,0.97,1.29,1.29c0.66,0.32,1.7,0.48,3.11,0.48c1.51,0,2.67-0.16,3.49-0.47c0.82-0.32,1.4-0.75,1.72-1.31
		c0.33-0.56,0.49-1.18,0.49-1.88v-4.41c0-0.35-0.08-0.62-0.25-0.81c-0.17-0.19-0.45-0.33-0.85-0.41c-0.4-0.08-0.93-0.13-1.6-0.14
		v-0.28c0.36,0.01,0.83,0.02,1.41,0.03c0.58,0.01,1.12,0.01,1.62,0.01c0.52,0,1.03,0,1.53-0.01C85.01,19.59,85.42,19.58,85.73,19.57
		z"/>
	<path d="M112.81,19.57c-0.08,0.36-0.13,0.7-0.16,1.04c-0.03,0.33-0.04,0.59-0.04,0.77c0,0.23,0.01,0.44,0.03,0.64
		c0.02,0.2,0.04,0.37,0.06,0.52H112c-0.14-0.66-0.33-1.18-0.56-1.56c-0.24-0.38-0.65-0.66-1.25-0.83c-0.59-0.17-1.52-0.25-2.76-0.25
		h-1.6v8.04c0,0.38,0.07,0.66,0.22,0.85c0.15,0.19,0.44,0.32,0.88,0.38c0.44,0.07,1.07,0.11,1.9,0.13v0.28
		c-0.52-0.02-1.17-0.03-1.96-0.04c-0.79,0-1.59-0.01-2.41-0.01c-0.89,0-1.73,0-2.51,0.01c-0.78,0-1.41,0.02-1.89,0.04V29.3
		c0.83-0.02,1.47-0.06,1.9-0.13c0.44-0.07,0.73-0.19,0.88-0.38c0.15-0.19,0.22-0.47,0.22-0.85v-8.04h-1.6
		c-1.23,0-2.14,0.08-2.75,0.25c-0.6,0.17-1.03,0.45-1.26,0.83s-0.43,0.9-0.56,1.56h-0.68c0.04-0.15,0.06-0.33,0.07-0.52
		c0.01-0.2,0.01-0.41,0.01-0.64c0-0.18-0.01-0.44-0.04-0.77c-0.03-0.33-0.08-0.68-0.16-1.04c0.83,0.01,1.74,0.02,2.72,0.03
		c0.98,0.01,1.97,0.01,2.96,0.01s1.89,0,2.7,0c0.81,0,1.71,0,2.69,0s1.97,0,2.96-0.01C111.09,19.59,111.99,19.58,112.81,19.57z"/>
	<path d="M131.17,19.57v0.28c-0.67,0.01-1.18,0.04-1.53,0.11c-0.35,0.06-0.58,0.17-0.7,0.34c-0.12,0.17-0.18,0.42-0.18,0.77v7.01
		c0,0.34,0.06,0.59,0.18,0.76c0.12,0.17,0.35,0.28,0.7,0.34c0.35,0.06,0.86,0.09,1.53,0.11v0.28c-0.46-0.02-1.03-0.03-1.71-0.04
		c-0.68,0-1.37-0.01-2.07-0.01c-0.77,0-1.5,0-2.17,0.01c-0.67,0-1.22,0.02-1.63,0.04V29.3c0.67-0.02,1.18-0.06,1.53-0.11
		c0.35-0.06,0.58-0.17,0.7-0.34c0.12-0.17,0.18-0.42,0.18-0.76v-7.01c0-0.35-0.06-0.61-0.18-0.77c-0.12-0.16-0.35-0.28-0.7-0.34
		c-0.35-0.06-0.86-0.1-1.53-0.11v-0.28c0.42,0.01,0.96,0.02,1.63,0.03c0.67,0.01,1.4,0.01,2.17,0.01c0.69,0,1.38,0,2.07-0.01
		C130.14,19.59,130.71,19.58,131.17,19.57z"/>
	<path d="M151.88,19.37c1.88,0,3.53,0.2,4.95,0.61c1.42,0.41,2.52,0.99,3.3,1.75c0.78,0.76,1.17,1.68,1.17,2.76
		c0,1.06-0.4,1.98-1.2,2.77c-0.8,0.79-1.92,1.41-3.34,1.85c-1.43,0.44-3.06,0.66-4.9,0.66c-1.88,0-3.53-0.2-4.95-0.61
		c-1.42-0.41-2.52-0.99-3.3-1.75c-0.78-0.76-1.17-1.68-1.17-2.76c0-1.06,0.41-1.98,1.22-2.77c0.81-0.79,1.93-1.41,3.34-1.85
		C148.41,19.59,150.04,19.37,151.88,19.37z M163.08,29.9l0.45,0.08c-0.24,0.39-0.51,0.71-0.82,0.97c-0.31,0.26-0.66,0.47-1.05,0.64
		c-0.38,0.16-0.89,0.31-1.53,0.44c-0.64,0.13-1.47,0.2-2.48,0.2c-1.05,0-2.07-0.08-3.05-0.25c-0.98-0.17-2-0.37-3.05-0.6
		c-1.05-0.24-2.21-0.45-3.48-0.65c-0.14-0.02-0.27-0.04-0.39-0.06c-0.12-0.02-0.23-0.03-0.33-0.04c-0.38,0.07-0.78,0.12-1.22,0.16
		c-0.44,0.04-0.85,0.06-1.25,0.06c-0.4,0-0.72-0.02-0.98-0.07c-0.26-0.05-0.39-0.12-0.39-0.21c0-0.2,0.53-0.3,1.6-0.3
		c0.69,0,1.44,0.04,2.23,0.11c0.71-0.09,1.33-0.2,1.84-0.32c0.51-0.12,1.04-0.23,1.59-0.33c0.54-0.1,1.2-0.17,1.98-0.2l0.03,0.23
		c-0.59,0.03-1.11,0.08-1.55,0.16c-0.44,0.08-0.87,0.17-1.31,0.26c-0.44,0.09-0.95,0.18-1.55,0.27c0.99,0.09,2.07,0.19,3.24,0.3
		c1.17,0.1,2.3,0.19,3.39,0.27c1.09,0.08,2.02,0.11,2.79,0.11c1.43,0,2.55-0.1,3.37-0.3C162.02,30.64,162.65,30.33,163.08,29.9z
		 M151.76,19.63c-1.29,0-2.41,0.21-3.36,0.64c-0.95,0.42-1.69,1.01-2.21,1.75c-0.53,0.74-0.79,1.61-0.79,2.59
		c0,1,0.29,1.87,0.88,2.61c0.58,0.74,1.38,1.31,2.38,1.71c1,0.4,2.1,0.6,3.31,0.6c1.29,0,2.41-0.21,3.36-0.64
		c0.95-0.42,1.69-1.01,2.21-1.76c0.53-0.75,0.79-1.61,0.79-2.58c0-1.01-0.29-1.88-0.88-2.62c-0.58-0.74-1.37-1.3-2.36-1.7
		C154.1,19.83,152.99,19.63,151.76,19.63z"/>
	<path d="M190.84,19.57v0.28c-0.67,0.01-1.18,0.06-1.53,0.14c-0.35,0.08-0.58,0.22-0.7,0.41c-0.12,0.19-0.18,0.46-0.18,0.81v4.26
		c0,0.66-0.09,1.23-0.27,1.73c-0.18,0.49-0.49,0.91-0.95,1.27c-0.5,0.4-1.22,0.71-2.17,0.95c-0.95,0.24-2.04,0.36-3.27,0.36
		c-0.95,0-1.86-0.05-2.72-0.16c-0.86-0.11-1.62-0.31-2.27-0.6c-0.58-0.26-1.03-0.54-1.35-0.83c-0.33-0.29-0.55-0.65-0.67-1.07
		c-0.12-0.42-0.18-0.96-0.18-1.6v-4.44c0-0.35-0.06-0.61-0.18-0.77c-0.12-0.16-0.35-0.28-0.7-0.34c-0.35-0.06-0.86-0.1-1.53-0.11
		v-0.28c0.42,0.01,0.96,0.02,1.63,0.03c0.67,0.01,1.4,0.01,2.17,0.01c0.69,0,1.38,0,2.07-0.01c0.68-0.01,1.25-0.02,1.71-0.03v0.28
		c-0.67,0.01-1.18,0.04-1.53,0.11c-0.35,0.06-0.58,0.17-0.7,0.34c-0.12,0.17-0.18,0.42-0.18,0.77v4.68c0,0.64,0.1,1.23,0.3,1.77
		c0.2,0.54,0.63,0.97,1.29,1.29c0.66,0.32,1.7,0.48,3.11,0.48c1.51,0,2.67-0.16,3.49-0.47c0.82-0.32,1.4-0.75,1.72-1.31
		c0.33-0.56,0.49-1.18,0.49-1.88v-4.41c0-0.35-0.08-0.62-0.25-0.81c-0.17-0.19-0.45-0.33-0.85-0.41c-0.4-0.08-0.93-0.13-1.6-0.14
		v-0.28c0.36,0.01,0.83,0.02,1.41,0.03c0.58,0.01,1.12,0.01,1.62,0.01c0.51,0,1.03,0,1.53-0.01
		C190.11,19.59,190.52,19.58,190.84,19.57z"/>
	<path d="M216.39,19.57c-0.08,0.33-0.13,0.65-0.16,0.96c-0.03,0.31-0.04,0.55-0.04,0.71c0,0.17,0.01,0.33,0.03,0.49
		c0.02,0.16,0.04,0.29,0.06,0.39h-0.68c-0.12-0.56-0.29-1-0.5-1.32c-0.22-0.33-0.59-0.56-1.11-0.69c-0.53-0.14-1.31-0.21-2.36-0.21
		h-2.47c-0.67,0-1.18,0.03-1.53,0.08c-0.35,0.05-0.58,0.16-0.7,0.33c-0.12,0.17-0.18,0.42-0.18,0.77v7.01
		c0,0.34,0.06,0.59,0.18,0.76c0.12,0.17,0.35,0.28,0.7,0.33c0.35,0.05,0.86,0.08,1.53,0.08h2.17c1.25,0,2.19-0.08,2.84-0.24
		c0.64-0.16,1.11-0.42,1.4-0.78c0.29-0.36,0.5-0.86,0.64-1.48h0.68c-0.06,0.25-0.09,0.59-0.09,1.02c0,0.18,0.01,0.44,0.04,0.77
		c0.03,0.33,0.08,0.68,0.16,1.04c-1.01-0.02-2.15-0.03-3.42-0.04c-1.27,0-2.4-0.01-3.39-0.01c-0.59,0-1.38,0-2.36,0
		c-0.98,0-2.03,0-3.13,0.01c-1.11,0-2.15,0.02-3.12,0.04V29.3c0.67-0.02,1.18-0.06,1.53-0.11c0.35-0.06,0.58-0.17,0.7-0.34
		c0.12-0.17,0.18-0.42,0.18-0.76v-7.01c0-0.35-0.06-0.61-0.18-0.77c-0.12-0.16-0.35-0.28-0.7-0.34c-0.35-0.06-0.86-0.1-1.53-0.11
		v-0.28c0.97,0.01,2.01,0.02,3.12,0.03c1.11,0.01,2.15,0.01,3.13,0.01c0.98,0,1.77,0,2.36,0c0.91,0,1.95,0,3.11-0.01
		C214.45,19.6,215.48,19.59,216.39,19.57z M211.28,24.4v0.28h-5.44V24.4H211.28z M212.14,22.54c-0.08,0.54-0.11,0.95-0.1,1.23
		c0.01,0.28,0.01,0.54,0.01,0.78c0,0.24,0.01,0.49,0.03,0.78c0.02,0.28,0.07,0.69,0.15,1.23h-0.68c-0.08-0.3-0.17-0.6-0.28-0.88
		c-0.11-0.29-0.35-0.52-0.71-0.71c-0.37-0.18-0.99-0.28-1.86-0.28V24.4c0.87,0,1.48-0.11,1.83-0.33c0.35-0.22,0.57-0.47,0.67-0.76
		c0.1-0.29,0.19-0.55,0.27-0.78H212.14z"/>
</g>
<rect x="192.93" y="112.65" style="fill:none;" width="1.35" height="2.24"/>
<g>
	<path d="M24.53,80.67c-2.5,0-3.75-0.98-3.75-2.93c0-2.59,1.96-6.31,5.87-11.16c3.91-4.85,8.38-9.2,13.41-13.05
		c5.02-3.85,8.98-5.78,11.87-5.78c1.05,0,1.58,0.54,1.58,1.62c0,1.68-1.96,4.41-5.87,8.2c-3.91,3.79-8.12,7.34-12.61,10.65
		c-4.5,3.31-7.97,5.59-10.41,6.82c-0.11,0.64-0.17,1.07-0.17,1.29c0,0.22,0.03,0.47,0.08,0.75c0.05,0.28,0.28,0.64,0.67,1.08
		c0.39,0.44,1.04,0.66,1.96,0.66c0.92,0,2.54-0.39,4.87-1.17c2.33-0.78,4.38-1.57,6.16-2.36l2.66-1.2c0.05,0.08,0.08,0.24,0.08,0.48
		c0,0.24-0.25,0.44-0.75,0.6C32.69,78.83,27.47,80.67,24.53,80.67z M50.51,50.81c-0.06-0.88-0.42-1.32-1.08-1.32
		c-1.72,0-4.33,1.4-7.83,4.19c-3.5,2.79-6.88,6.13-10.16,10.02c-3.28,3.89-5.41,7.23-6.41,10.02c2.33-1.36,5.33-3.35,8.99-5.98
		c3.66-2.63,7.27-5.65,10.83-9.04C48.4,55.32,50.28,52.68,50.51,50.81z"/>
	<path d="M46.18,73.91c-3.33,0-5-0.52-5-1.56c0-1.24,1.97-2.7,5.91-4.4c3.94-1.7,7.49-2.54,10.66-2.54c1.61,0,2.41,0.36,2.41,1.08
		c0,0.4-0.42,0.84-1.25,1.32c-0.83,0.48-1.64,0.86-2.42,1.14c-0.78,0.28-1.22,0.42-1.33,0.42c-0.33,0-0.56-0.1-0.67-0.3
		c-0.11-0.28,0.18-0.57,0.87-0.87c0.69-0.3,1.04-0.63,1.04-0.99c0-0.36-0.62-0.54-1.87-0.54c-1.25,0-3.21,0.63-5.87,1.88
		c-2.66,1.26-4,2.28-4,3.08c0,0.6,0.97,0.9,2.91,0.9c0.33,0,0.94-0.02,1.83-0.06c0.89-0.04,1.33,0.04,1.33,0.24
		c0,0.2-1.37,0.92-4.12,2.15c-2.75,1.24-4.12,2.29-4.12,3.17c0,1,0.9,1.5,2.71,1.5c1.8,0,3.84-0.34,6.12-1.02
		c3.66-1.16,6.99-2.39,9.99-3.71l1.58-0.72c0.05,0.08,0.08,0.24,0.08,0.48c0,0.24-0.25,0.44-0.75,0.6c-2.94,1.44-6.16,2.8-9.66,4.1
		c-3.5,1.3-6.65,1.95-9.45,1.95c-2.8,0-4.2-0.67-4.2-2C38.93,77.87,41.35,76.1,46.18,73.91z"/>
	<path d="M65.91,80.67c-2.5,0-3.75-0.98-3.75-2.93c0-2.59,1.96-6.31,5.87-11.16c3.91-4.85,8.38-9.2,13.41-13.05
		c5.02-3.85,8.98-5.78,11.87-5.78c1.05,0,1.58,0.54,1.58,1.62c0,1.68-1.96,4.41-5.87,8.2c-3.91,3.79-8.12,7.34-12.61,10.65
		c-4.5,3.31-7.97,5.59-10.41,6.82c-0.11,0.64-0.17,1.07-0.17,1.29c0,0.22,0.03,0.47,0.08,0.75c0.05,0.28,0.28,0.64,0.67,1.08
		c0.39,0.44,1.04,0.66,1.96,0.66s2.54-0.39,4.87-1.17c2.33-0.78,4.38-1.57,6.16-2.36l2.66-1.2c0.05,0.08,0.08,0.24,0.08,0.48
		c0,0.24-0.25,0.44-0.75,0.6C74.07,78.83,68.85,80.67,65.91,80.67z M91.89,50.81c-0.06-0.88-0.42-1.32-1.08-1.32
		c-1.72,0-4.33,1.4-7.83,4.19c-3.5,2.79-6.88,6.13-10.16,10.02c-3.28,3.89-5.41,7.23-6.41,10.02c2.33-1.36,5.33-3.35,8.99-5.98
		c3.66-2.63,7.27-5.65,10.83-9.04C89.78,55.32,91.67,52.68,91.89,50.81z"/>
	<path d="M149.7,79.11c0-0.44,0.46-1.18,1.37-2.21c0.92-1.04,1.53-1.7,1.83-1.97c0.3-0.28,0.76-0.72,1.37-1.32
		c-6.61,4.31-11.16,6.46-13.66,6.46c-1.39,0-2.08-0.42-2.08-1.26c0-1.2,2.8-4.57,8.41-10.11c0.28-0.32,0.64-0.48,1.08-0.48
		c1.28,0.28,1.92,0.48,1.92,0.6c0,0.12-0.17,0.36-0.5,0.72c-4.78,4.63-7.16,7.23-7.16,7.81c0,0.58,0.28,0.87,0.83,0.87
		c1.55,0,4.32-1.29,8.29-3.86c3.97-2.57,6.84-4.7,8.62-6.37c0.22-0.28,0.58-0.42,1.08-0.42c1.11,0.16,1.67,0.32,1.67,0.48
		c-0.61,0.64-1.44,1.48-2.5,2.51c-1.06,1.04-1.92,1.88-2.58,2.54c-0.67,0.66-1.36,1.37-2.08,2.12c-1.39,1.36-2.22,2.35-2.5,2.99
		c0,0.4,0.46,0.6,1.37,0.6c0.92,0,2.54-0.39,4.87-1.17c2.33-0.78,4.39-1.57,6.16-2.36l2.67-1.2c0.05,0.08,0.08,0.24,0.08,0.48
		c0,0.24-0.25,0.44-0.75,0.6c-7.49,3.67-12.71,5.51-15.65,5.51C150.42,80.67,149.7,80.15,149.7,79.11z"/>
	<path d="M183.43,74.09c-0.39,1.08-0.58,2.23-0.58,3.47c0,1.24,0.72,1.86,2.16,1.86c0.39,0,1.04-0.15,1.96-0.45
		c0.92-0.3,1.44-0.45,1.58-0.45c0.14,0,0.21,0.04,0.21,0.12c0,0.48-0.58,0.98-1.75,1.5c-1.17,0.52-2.33,0.78-3.5,0.78
		c-2.33,0-3.5-1.12-3.5-3.35c0-0.52,0.03-0.92,0.08-1.2c-4.44,2.79-7.84,4.19-10.2,4.19c-2.36,0-3.54-0.58-3.54-1.74
		c0-1.72,2.04-3.86,6.12-6.43c4.08-2.57,7.95-4.04,11.62-4.4c3.16-4.67,7.06-9.04,11.7-13.11c4.63-4.07,8.2-6.1,10.7-6.1
		c0.44,0,0.81,0.17,1.08,0.51c0.28,0.34,0.42,0.67,0.42,0.99c0,1.32-2.71,4.63-8.12,9.93C194.46,65.51,188.98,70.14,183.43,74.09z
		 M170.35,78.34c0,0.6,0.47,0.9,1.42,0.9c1.5,0,4.41-1.5,8.74-4.49c0.72-1.83,1.58-3.53,2.58-5.09c-2.72,0.48-5.52,1.76-8.41,3.83
		C171.8,75.56,170.35,77.18,170.35,78.34z M204.91,51.17c0-0.32-0.17-0.48-0.5-0.48c-0.94,0-2.73,1.12-5.37,3.35
		c-2.64,2.23-5.4,5.08-8.28,8.53c-2.89,3.45-5.03,6.61-6.41,9.49c5.16-3.91,9.88-7.96,14.15-12.15
		C202.77,55.71,204.91,52.8,204.91,51.17z"/>
</g>
<path d="M123.83,87.01c-0.56,0.15-1.9-2.52-3.06-4.9c-1.87-3.84-2.88-6.96-3.18-7.88c-2.02-6.33-3.04-9.49-3.44-12.29
	c-0.82-5.71-1.37-9.48,0.54-10.97c3.66-2.84,14.92,4.65,15.21,10.76c0.18,3.8-6.56,0.09-8.9,6.36
	C118.18,75.68,124.91,86.73,123.83,87.01z"/>
<path d="M117.01,80.79l-0.34-0.04l0.01,0c-4.82-0.02-9.85-1.81-13.31-5.36c-1.69-1.77-3.21-3.73-4.16-6
	c-0.21-0.57-0.39-1.2-0.24-1.86c0.18-0.7,0.9-1.04,1.48-1.17c1.23-0.27,2.48-0.16,3.69,0.07c2.41,0.48,4.76,1.55,6.57,3.31
	c1.78,1.78,3.04,3.89,4.27,5.98l7.01,12.66l-0.08,0.05c-2.87-3.9-5.38-8.04-7.84-12.18c-1.25-2.04-2.44-4.15-4.03-5.84
	c-1.61-1.64-3.76-2.78-6.03-3.42c-1.13-0.29-2.34-0.5-3.48-0.28c-0.55,0.12-1.11,0.38-1.26,0.91c-0.15,0.52,0.02,1.13,0.23,1.66
	c0.45,1.09,1.16,2.07,1.93,2.98c0.77,0.91,1.61,1.76,2.5,2.55c1.77,1.57,3.7,2.94,5.89,3.88c2.16,0.96,4.49,1.57,6.87,1.92l0.01,0
	l0.33,0.09L117.01,80.79z"/>
<path d="M131.8,62.51c-0.98-2.65-2.59-5.05-4.55-7.09c-2-2-4.4-3.63-7.04-4.66c-2.63-1.05-5.46-1.56-8.27-1.5
	c-2.81,0.06-5.6,0.67-8.13,1.83c-2.54,1.15-4.79,2.86-6.63,4.88c-3.68,4.07-5.69,9.39-5.78,14.76c-0.06,2.69,0.35,5.4,1.25,7.99
	c0.89,2.59,2.33,5.03,4.23,7.07c1.91,2.03,4.28,3.66,6.88,4.69c2.6,1.03,5.44,1.43,8.18,1.25c3.66-0.27,7.08-1.52,10.07-3.39
	l-0.28-0.42c0,0-1.42,0.68-2.27,0.97c-2.44,0.85-5.03,1.11-7.53,0.93c-2.5-0.18-4.92-0.82-7.17-1.8c-2.25-0.97-4.32-2.32-6.13-4
	c-1.81-1.68-3.35-3.67-4.46-5.94c-1.12-2.26-1.75-4.79-1.81-7.36c-0.04-2.56,0.47-5.14,1.51-7.48c1.02-2.35,2.59-4.43,4.46-6.12
	c3.77-3.37,8.72-5.13,13.6-5.04c4.9,0.11,9.62,2.18,13.05,5.59c3.48,3.39,5.57,8.07,6.02,13.05c0.19,2.49-0.07,5.08-0.92,7.52
	c-0.84,2.44-2.23,4.71-4.07,6.56c-0.76,0.76-1.6,1.43-2.49,2.03l0.21,0.32c0.88-0.66,1.72-1.37,2.49-2.14
	c3.72-3.72,6.35-8.74,6.75-14.29C133.19,67.99,132.82,65.14,131.8,62.51z"/>
<path d="M106.43,67.62c-1.15-0.59-2.77-1.25-4.77-1.15c-1.12,0.05-1.88,0.09-2.26,0.6c-1.09,1.46,1.62,5.73,4.58,8.28
	c1.71,1.47,3.5,2.38,5.25,3.26c2.03,1.03,5.24,1.61,5.77,1.75c2.25,0.6,1.44,0.3,1.92-0.28c0.38-0.46-0.75-1.66-1.4-2.78
	c-1.1-1.91-1.98-3.43-2.64-4.22C110.04,69.72,107.87,68.35,106.43,67.62z"/>
</svg>
